<mxfile host="app.diagrams.net" modified="2022-01-10T09:23:02.205Z" agent="5.0 (Macintosh; Intel Mac OS X 10_14_6) AppleWebKit/537.36 (KHTML, like Gecko) Chrome/96.0.4664.110 Safari/537.36" etag="FpVSCJpAbsFNYgOA7KDu" version="16.2.2" type="github">
  <diagram id="wByTLE0E93aZnK7cTjbl" name="Page-1">
    <mxGraphModel dx="1186" dy="708" grid="1" gridSize="10" guides="1" tooltips="1" connect="1" arrows="1" fold="1" page="1" pageScale="1" pageWidth="827" pageHeight="1169" math="0" shadow="0">
      <root>
        <mxCell id="0" />
        <mxCell id="1" parent="0" />
        <mxCell id="0wO0rwzhLb_QAhRfeM1H-2" value="" style="rounded=0;whiteSpace=wrap;html=1;" vertex="1" parent="1">
          <mxGeometry x="170" y="140" width="490" height="540" as="geometry" />
        </mxCell>
        <mxCell id="0wO0rwzhLb_QAhRfeM1H-6" style="edgeStyle=orthogonalEdgeStyle;rounded=0;orthogonalLoop=1;jettySize=auto;html=1;exitX=0.5;exitY=1;exitDx=0;exitDy=0;entryX=0.5;entryY=0;entryDx=0;entryDy=0;" edge="1" parent="1" source="0wO0rwzhLb_QAhRfeM1H-1" target="0wO0rwzhLb_QAhRfeM1H-5">
          <mxGeometry relative="1" as="geometry" />
        </mxCell>
        <mxCell id="0wO0rwzhLb_QAhRfeM1H-1" value="ETL JOBS" style="rounded=1;whiteSpace=wrap;html=1;" vertex="1" parent="1">
          <mxGeometry x="330" y="50" width="120" height="60" as="geometry" />
        </mxCell>
        <mxCell id="0wO0rwzhLb_QAhRfeM1H-5" value="" style="rounded=0;whiteSpace=wrap;html=1;" vertex="1" parent="1">
          <mxGeometry x="330" y="160" width="120" height="60" as="geometry" />
        </mxCell>
      </root>
    </mxGraphModel>
  </diagram>
</mxfile>
